<svg version="1.1" id="Layer_1" xmlns="http://www.w3.org/2000/svg" xmlns:xlink="http://www.w3.org/1999/xlink" x="0px" y="0px"
	 viewBox="0 0 425.2 260.8" style="enable-background:new 0 0 425.2 260.8;" xml:space="preserve">
<g>
	<path d="M288.9,25.8c-1.1,0-2.2,0-3.4-0.1c0.9-1.8,2-3.7,3.1-5.7c1.1,1.9,2.1,3.8,3.1,5.7C290.8,25.7,289.8,25.8,288.9,25.8
		 M287.5,18.4c-2.4,4.2-4.9,8.4-7.3,12.4h2.8c0.5-1,1-2,1.5-3.2c1-0.1,2.6-0.1,4.1-0.1c1.5,0,3,0,4,0.1c0.5,1,1,2.1,1.5,3.2h3
		c-2.4-4-4.7-8.1-7-12.4H287.5z M269.8,25.8L269.8,25.8c2.4,2.2,3.9,3.8,5,4.9h3.3v-0.4c-2.3-1.7-4.3-3.7-5.5-4.8
		c2.5-0.5,3.7-1.7,3.7-3.5c0-2.7-1.9-3.9-6.2-3.9c-1.9,0-4.8,0.1-6.5,0.2h0c0,2.1,0,4.1,0,6.2c0,2.1,0,4.1,0,6.2h2.4
		c0-1.7,0-3.3-0.1-5C267,25.8,268.9,25.8,269.8,25.8 M270.1,24c-1.8,0-3.3-0.1-4.3-0.2c0-1.2,0-2.4,0-3.6c0.9,0,2.1-0.1,4-0.1
		c2.3,0,4,0.4,3.9,2.1C273.8,23.7,272.5,24,270.1,24 M254.6,24.3c0,2.7-0.9,4.5-4.5,4.5c-1.5,0-2.9,0-5.4-0.2c-0.1-2.4,0-5.4,0-8.3
		c1.9-0.1,2.5-0.1,4.2-0.1C252.9,20.3,254.6,21.2,254.6,24.3 M257,24.2c0-4.1-2-6-7.2-6c-2.9,0-5.8,0.1-7.4,0.1
		c0.1,3.3,0.1,10,0,12.4c1.6,0,3,0,4.2,0c1.7,0,3,0,4,0C254.7,30.7,257,28.2,257,24.2 M223.1,30.7c-0.3-3.2-0.4-7.4-0.5-10.3
		c3.1,3.2,6.7,7.4,9.6,10.3h2.6c0-2.7,0.1-9.2,0.2-12.4h-2.5c0.1,2.6,0.3,6.9,0.4,9.7c-2.8-3-6.4-6.7-9-9.7h-3.4c0,3,0.1,10,0,12.4
		H223.1z M208,25.8c-1.1,0-2.2,0-3.4-0.1c0.9-1.8,2-3.7,3.1-5.7c1.1,1.9,2.1,3.8,3.1,5.7C209.9,25.7,209,25.8,208,25.8 M206.7,18.4
		c-2.4,4.2-4.9,8.4-7.3,12.4h2.8c0.5-1,1-2,1.5-3.2c1-0.1,2.6-0.1,4.1-0.1c1.5,0,3,0,4,0.1c0.5,1,1,2.1,1.5,3.2h3
		c-2.4-4-4.7-8.1-7-12.4H206.7z M194.3,18.4c-1.9,2.3-2.7,3.3-4.5,5c-2.1-2-4.1-4.2-5-5h-3.2c2,1.8,4.3,4.1,6.5,6.2
		c-2.3,2-4.6,4.6-6.5,6.2h3.2c1.9-2.3,2.7-3.3,4.5-5.1c3.4,3.3,4.3,4,5.4,5.1h3.2c-0.7-0.8-4-3.5-6.9-6.2c2.2-2,4.6-4.6,6.5-6.2
		H194.3z M164.7,30.7h13.2v-2.2c-3.9,0.1-7.3,0.2-10.9,0.2c0-1.2,0-2.4,0-3.6c1.6,0,4.6,0.2,8.5,0.4v-2.1H167c0-1.1,0-2.1,0-3.2
		c3.4-0.1,6.4,0,10.5,0.2v-2.2h-12.8C164.8,22.5,164.8,26.6,164.7,30.7 M149.3,30.7h10.1v-2.2c-2.8,0.1-5.3,0.2-7.8,0.2
		c0-3.5,0-7,0-10.4h-2.4C149.3,22.5,149.3,26.6,149.3,30.7 M136.7,25.8c-1.1,0-2.2,0-3.4-0.1c0.9-1.8,2-3.7,3.1-5.7
		c1.1,1.9,2.1,3.8,3.1,5.7C138.6,25.7,137.7,25.8,136.7,25.8 M135.4,18.4c-2.4,4.2-4.9,8.4-7.3,12.4h2.8c0.5-1,1-2,1.5-3.2
		c1-0.1,2.6-0.1,4.1-0.1c1.5,0,3,0,4,0.1c0.5,1,1,2.1,1.5,3.2h3c-2.4-4-4.7-8.1-7-12.4H135.4z"/>
	<path d="M264.2,242.3c-0.3-3.2-0.4-7.4-0.5-10.3c3.1,3.2,6.7,7.4,9.6,10.3h2.6c0-2.7,0.1-9.2,0.2-12.4h-2.5
		c0.1,2.6,0.3,6.9,0.4,9.7c-2.8-3-6.4-6.7-9-9.7h-3.4c0,3,0.1,10,0,12.4H264.2z M241.9,242.3h13.2v-2.2c-3.9,0.1-7.3,0.2-10.9,0.2
		c0-1.2,0-2.4,0-3.6c1.6,0,4.6,0.2,8.5,0.4v-2.1h-8.5c0-1.1,0-2.1,0-3.2c3.4-0.1,6.4,0,10.5,0.2v-2.2h-12.8
		C242,234.1,242,238.2,241.9,242.3 M221.4,240.5c1.5,1.2,3.9,2.1,7.6,2.1c4.9,0,6.7-1.4,6.7-3.8c0-2.2-1.6-3.5-6.5-3.7
		c-4.2-0.2-5.1-0.7-5.1-1.7c0-1.1,1-1.6,4.1-1.6c2.9,0,4.8,0.8,5.9,1.7l1.3-2c-1.6-1.1-3.5-1.8-6.9-1.8c-4.1,0-6.6,1.2-6.6,3.6
		c0,2.3,1.7,3.5,6.2,3.6c4.8,0.2,5.3,0.9,5.3,1.8c0,1.1-1,1.7-3.9,1.7c-3.5,0-5.5-0.8-6.9-1.8L221.4,240.5z M202.2,240.5
		c1.5,1.2,3.9,2.1,7.6,2.1c4.9,0,6.7-1.4,6.7-3.8c0-2.2-1.6-3.5-6.5-3.7c-4.2-0.2-5.1-0.7-5.1-1.7c0-1.1,1-1.6,4.1-1.6
		c2.9,0,4.8,0.8,5.9,1.7l1.3-2c-1.6-1.1-3.5-1.8-6.9-1.8c-4.1,0-6.6,1.2-6.6,3.6c0,2.3,1.7,3.5,6.2,3.6c4.8,0.2,5.3,0.9,5.3,1.8
		c0,1.1-1,1.7-3.9,1.7c-3.5,0-5.5-0.8-6.9-1.8L202.2,240.5z M191,237.3c-1.1,0-2.2,0-3.4-0.1c0.9-1.8,2-3.7,3.1-5.7
		c1.1,1.9,2.1,3.8,3.1,5.7C192.9,237.3,191.9,237.3,191,237.3 M189.6,229.9c-2.4,4.2-4.8,8.4-7.3,12.4h2.8c0.5-1,1-2,1.5-3.2
		c1-0.1,2.6-0.1,4.1-0.1c1.5,0,3,0,4,0.1c0.5,1,1,2.1,1.5,3.2h3c-2.4-4-4.7-8.1-7-12.4H189.6z M170,242.3h10.1v-2.2
		c-2.8,0.1-5.3,0.2-7.8,0.2c-0.1-3.5,0-7,0-10.4H170C170,234.1,170,238.2,170,242.3 M164.7,232.8c-1.4-2-3.7-3.1-7.5-3.1
		c-5.4,0-8.2,2.7-8.2,6.6c0,3.9,2.9,6.3,8.1,6.3c4.1,0,6.6-1.6,7.7-3.9l-1.7-1c-0.9,1.7-2.7,2.8-5.9,2.8c-3.6,0-5.7-1.4-5.7-4.3
		c0-2.7,1.9-4.3,5.8-4.3c2.8,0,4.6,0.9,5.5,2.4L164.7,232.8z"/>
	<path d="M353.1,101.6c-5.1,5.4-12.6,8.9-16.6,15.2c-0.7,2.7-3.4,7.1-6.6,6.4c-0.9-0.4-1.8-0.9-2.9-0.6c-1-0.6-2.1-0.3-3.1-0.6
		c-0.2-1.2-1.5-0.9-2-2c1.3-0.8,0.4-2.5,1.7-3.3c4.9-4.5,1.1-12.4-0.1-17.9c-5.7,4.6-9.3,12.3-15.4,16.8
		c-11.3-4.1-6.3-4.6-10.6-13.6c-2.4,4.1-3.7,9.1-7.4,12.3c-7.6,2.4-10.8-2.3-10.9-9.6c-0.4-5-3.1-11.1,4.6-11c1-0.2,1-0.2,1.9,0.7
		c-0.3,0.8-0.4,1.8-1.4,1.5c-0.9,4.9-0.2,10.9,2,15.5c2.5-1.9,3.5-5.4,5-8.1c0.9-2.3,3-4.1,3-6.6c0.7-4.2,6.6-5.2,9.9-3.4
		c0.9,5.1,2.2,10.2,3.7,15.1c5.4-5.6,9-12.6,15.1-17.6c13.4-2.1,10.6,5.8,13.1,15.5c8-5.4,13.1-14.9,17.4-23.5
		c2.5-4.3,0.7-10.2,5.4-13.3c3-0.2,5.8,1.2,8.7,0.3c0.1,0.2,0.2,0.5,0.4,0.8h1.6c0.8,0.7,1.4,0.9,2.5,0.6c0.4,0.5,1,1,1.5,1.5
		c-0.6,1.1-1.1,2.1-2.1,2.9c-1.6,1-1.3,3.3-2.3,4.8c-0.2,0.4-0.4,0.8-0.1,1.3c0.2,1.7-1,3.4-0.9,5.2c-0.8,4.2,6.4-0.1,8.6,0
		c5.8-1.6,11.7-3,17.7-3.5c0.2,0.9,0.4,1.7,0.6,2.6c-0.3,0.3-0.5,0.6-0.9,0.9c0,0.4-0.1,0.9-0.1,1.3c-8.1,6.1-18.3,6.2-27.9,7.7
		c-2.6,5.7-1.4,11.9-2.8,17.8c0.5,1.4-0.4,2.7-0.1,4.1c0,0.6-0.7,0.9-0.4,1.6c0.1,1.4,0.6,3.4,0.1,4.7c-0.4,0.3-0.2,0.8,0.1,1.1
		c-1.5,2.1,2,4.8,1.9,6.9c0.1,0.7,0.1,0.7,0.8,1.4c-1.4,1.6-0.2,1.4-2.7,1.5c-0.1,0.2-0.1,0.4-0.2,0.7c-0.8-0.4-0.8-0.4-1.9-0.3
		c-4,0.1-4.7-4.9-5.8-7.8c-1.9-7.8-1.1-15.9-1.4-23.9C353.5,102.9,354.2,102,353.1,101.6"/>
	<path d="M265.2,159.1c-2.9-0.1-4.2,3.1-4.7,5.4c2.1,0.2,4.5-0.5,6.1-1.8C266.6,161.2,266.3,160.4,265.2,159.1 M174.7,181.3
		c5.6-4.8,7.9-12.1,7.7-19.2C176,160.3,171.8,177.5,174.7,181.3 M299.5,167.6c0.7,0.9-0.5,1.2-0.1,2.2c0.3-0.2,0.5-0.4,0.7-0.5
		c-1.5,4.5-5.1,8.6-7.2,12.9c-8,6.8-17.7,12.2-28.6,9.3c-1.1-1.4-3.2-1.8-4.9-2.6c-0.6,0.2-1-0.2-1.4-0.6c-1.2-1.2-3.1-1.8-3.3-3.7
		c-0.1-0.4-0.2-0.8-0.8-0.9c-0.8-0.6-1.2-1.8-1.7-2.6c-1.6-2-1.8-10.2-3.4-9.8c-13.3,0.5-6,8-10.1,15.5c-1.2,0.6-2.5,0.7-3.7,0.1
		c-1.5-0.8-3.7-0.1-4.7-1.7c-4.3-5.6-5.8-13.2-10.5-18.5c-6.7,3.5-6,13.5-11.4,18.5c-2,4.2-5.9,3.1-9.6,2.1
		c-7.2-2.7-9.4-11.3-13-17.3c-3.9,5.9-4.3,18.4-14.4,13.6c-1.1-0.6-2.3-2-2.2-3.4c0-6.6,2-13.5,4.9-19.5c2.7-2,6.4-1.6,9.6-1
		c0,0.5,0.1,1,0.1,1.5c2.5,0.2,6.1-1.7,7.3,1.6c2.5,5.7,4.8,11.8,7.6,17.3c7,13.3,7.2-18.6,18.1-18.4c4.6-0.6,9.7,1.1,12.6,4.7
		c1.8,1.9,1.7,5.2,4,6.7c6.5-9.2,17.4-5.6,18.2-8.8c0.5-1.5,0.9-3.2,1.3-4.7c0.6-2,2.4-3.3,3.2-5.3c8.9-0.9,19.6-2.2,26.4,4.5
		c-0.1,0.8-0.8,1.4-0.3,2.1c0.3,0.4,0.1,0.9-0.2,1.2c-6,5.6-14.3,8.5-22.4,9.3c-1.4,26.3,23.6,8.9,33.7-0.3
		C296.3,169.1,305.3,156,299.5,167.6"/>
	<path d="M138.4,104.6c5.1-6.6,8.5-14.6,11.8-22.2c0.5-1.4,0.5-1.4,0.3-2.8c-0.9-3.3-5.5,3.2-5.9,4.6C141.1,90,137.8,98,138.4,104.6
		 M161.8,73.7c-2.3,13.6-11.6,25.8-19.7,36.8c-5.5,3.5-0.4,14.2,5.5,9.7c8.9-5.3,11.8-21.7,22.9-22c2.9,0.7,6.3,1.6,7.3,4.6
		c1.2,2.7,1.7,5.9,1.3,8.8c1.8,8.2,0.6,14.9-7.5,19c-1-0.3-1.8,0.5-2.4,1.1c-5.1,3-10.9,6.9-16.8,7.1c0-0.4,0.1-0.8,0.6-1
		c5.2-1.5,9.1-5.6,12.5-9.5c2.6-3.3,5.4-6.9,6.3-11c-0.6-3,0.1-7-2.2-9.2c-0.1-1.1-0.1-2.3-0.9-3.3c-7.4,10.1-21.5,29.4-33.5,13.6
		c-3.3,1.7-5.8,5-9.2,6.6c-9.5,4.5-14.9-4.2-12-13c-0.2-1.4,1.1-2.8,0.6-4c-0.8-2.6,0.3-5.4-0.5-8c-0.5-1.7-0.9-2.2-2.8-2.2
		c-5.4-0.3-6.8,6.7-10.4,9.5c0.1,0.2-0.4-1-0.2-0.6c-0.5-0.2-0.9-0.3-1.2-0.4c1.7-8.5,14.2-15.1,20.6-7.2c3.4,6.3-2.4,13.4-1.5,20.2
		c0.6,11.5,12.7-4.3,14.6-7.9c-0.4-11.3,4.4-21.7,6.5-32.6c3.8-7.9,7.2-7.6,11.7-9.5C155,68.2,161.9,69.2,161.8,73.7"/>
	<path d="M62.9,114.9c-0.2-0.4-0.4-0.9-0.7-1.3c-3.3-0.4-6.4-0.8-9.6-1.8c5.7-7.7,16.1-8.1,24.3-11.6c4.6-1.8,10.1-2.9,14.5,0
		c3.6,3.5,3.7,10.3,3.8,15.2c0.4,3.1,1.6,6.1,2.3,9.2c-10.7,3.2-10-14.3-13.4-20.6c-1.9,0.5-20.6,4.5-18.6,6.1
		c13.9,3.5,9.7,21.8,0.6,28.6c-6.8,5.1-17.9,3.4-24.4-1.4c0-0.2,0.1-0.5,0.1-0.8c-4.5-4.1-6.8-10.2-8.9-15.7
		c-0.3-0.9,1.3-0.6,0.5-1.3c-0.7-0.2-0.9-0.3-0.9-0.9c0.1-2.1-2.8-4.2-2.3-6.2c0.6-2.6-0.8-5.2-0.1-7.7c0.3-17.3,6-20,17.9-32.1
		c3.8-3,13.7-3.3,18.5-2.8c0.3,0.5,1.6,1,2,1.5c-0.4,0.6-1.7,1.1-2.1,1.7c-3.1-1.6-5.8,0.1-8.5,1.8c-5,1.2-7.9,5.4-11.5,8.9
		c-10.6,11.7-8.9,38.1,0.6,50.1c7.7,10,20.3-1.5,19.1-11.4c0-1.2,0.8-2.2,0-3.4C65.4,117.2,65,115.3,62.9,114.9"/>
	<path d="M127.6,178.2c-0.4-0.1-0.7-0.2-1.1-0.3c0.5-0.7,1.7-0.9,1.4-2c-0.5-2.8-0.2-5.6-0.8-8.4c0.5-3.6-0.5-5-0.2-8.4
		c0.4-1.3-1-2.1-0.6-3.3c0.2-3.4-0.5-10.3-3.1-12.6c1.6-1.9,4.1-3.2,6.6-2.9c3.6,10,2.9,21.4,2.2,32c-0.6,2,0.4,2.6,2,1.4
		c5.9-3.2,12.3-5.3,17.9-8.9c3-2.7-0.7-10.8,0.6-14.8c0.5-1.5,2.6-1.2,3.7-2.2c1.3-0.8,1.3-0.8,3-0.5c2.4,4.7,1.6,9.7,0.5,14.6
		c0.2,5.3-0.2,10.5,0.1,15.8c0.6,6.3,0.1,12.6,0.5,19c0.9,5.9,1.6,11.4,1.2,17.3c-1.5,0.7-1.3-1.1-1.8-2c-0.3-1.8-0.9-3.4-1-5.2
		c-1.9-5.9-2.8-12.3-3.4-18.5c-0.8-5.9-0.8-11.9-1.3-17.9c-0.4-0.4-0.9-0.9-1-1.8c-6.3,4.4-13.7,6.2-20.9,8.5
		c-1.6,1.6-1.2,4.7-1.8,6.9c-1,7.2-1.8,14.9-2.1,22c-1.7-0.8-2.3-1.3-3.5-2.6c0.3-0.5,1.5,0.5,1.7-0.5c0.3-2.3,0.9-4.5,0.9-6.8
		c0.3-1.2,0.2-2.5,0.8-3.7c0.9-2.2-0.3-4.7,0.2-7C127.9,182.8,128.6,180.8,127.6,178.2"/>
	<path d="M80.7,81.6c2.6-1.8,6.2-5.9,9.4-3.7c0,0.8,0.7,1,1.2,1.4c0.9,2.6-0.3,3-2.5,3.9C86,83.6,81.9,84.5,80.7,81.6"/>
	<path d="M282.3,142.9c-0.6-2-1.1-4.1-1.7-6.2c-0.3,0.2-0.4,0.3-0.7,0.4c-0.8-10.3-1.7-21.6-1.7-32.4c-0.5-12,1-24.3-2.2-36
		c-7.3,3-9.8,12.3-13.4,18.7c-4.6,9.5-9.7,19.1-16.9,26.5c-18.1,5-26-26.1-32-38.3c-3.3,5.7-3.9,12.8-6,18.8
		c-0.8,0.6-0.9,1.5-0.8,2.3c0,0.3,0.6,0.6,0.4,1.2c-5.7,10-9.4,23-20.9,27.9c3-11.6,6.1-24,10.9-35.2C200.2,86,201.2,80,204,75
		c1.5-4.5,5.9-8.6,5.2-13.5c-0.2-5.3,9.7-2.7,13.2-2.4c3.5,16.6,6,36.1,18.9,48.5c8.1-9.1,35.3-65,45.6-33.1
		c0.1-0.2,0.3-0.4,0.5-0.7c0,20.4-0.2,41.4,1.8,61.9c-0.3,7.2,4.7,7.2,3.8,13.8c-0.8,0-1.7,0-2.4,0.6c-3,0.8-6.8-1.2-7.1-4.5
		C283.5,144.6,282.8,143.8,282.3,142.9"/>
</g>
</svg>
